<svg xmlns="http://www.w3.org/2000/svg" viewBox="0 0 82.7 82.7"><defs><style>.cls-1{fill:#205a44;}.cls-2{fill:none;}.cls-3{fill:#fac760;}.cls-4{fill:#396d81;}.cls-5{fill:#9d5c82;}.cls-6{fill:#f1865c;}.cls-7{fill:#85ccd5;}</style></defs><title>Asset 1</title><g id="Layer_2" data-name="Layer 2"><g id="Layer_2-2" data-name="Layer 2"><path class="cls-1" d="M40.4,79h0q-1,0-2-.1a.38.38,0,0,1-.34-.4.38.38,0,0,1,.4-.34c.65,0,1.3.08,2,.1a.38.38,0,0,1,0,.75Zm2,0a.38.38,0,0,1,0-.75q1,0,2-.1a.38.38,0,1,1,.06.75q-1,.08-2,.11Zm-5.94-.3h0q-1-.13-2-.31a.37.37,0,1,1,.14-.74q1,.18,1.94.31a.38.38,0,0,1,0,.75Zm9.9,0a.37.37,0,0,1,0-.75q1-.13,1.94-.31a.37.37,0,0,1,.14.74c-.65.12-1.31.23-2,.32ZM32.54,78h-.09q-1-.24-1.94-.52a.37.37,0,0,1-.25-.47.38.38,0,0,1,.47-.25q.94.28,1.9.51a.38.38,0,0,1-.09.74Zm17.7,0a.37.37,0,0,1-.09-.74q1-.23,1.9-.52a.37.37,0,1,1,.22.72q-1,.29-1.93.53Zm-21.5-1.12-.13,0q-.95-.34-1.87-.73a.38.38,0,1,1,.29-.69q.9.38,1.83.71a.37.37,0,0,1-.13.73Zm25.3,0a.38.38,0,0,1-.13-.73q.92-.33,1.82-.71a.37.37,0,1,1,.29.69q-.92.39-1.86.73Zm-29-1.52a.38.38,0,0,1-.16,0q-.9-.44-1.78-.92a.38.38,0,1,1,.36-.66q.86.47,1.75.91a.38.38,0,0,1-.16.71Zm32.61,0a.38.38,0,0,1-.16-.71q.88-.43,1.74-.91a.37.37,0,1,1,.37.65q-.87.49-1.78.93A.38.38,0,0,1,57.68,75.26ZM21.6,73.37a.37.37,0,0,1-.2-.06c-.57-.35-1.12-.72-1.67-1.11a.38.38,0,0,1,.43-.62q.8.57,1.64,1.09a.38.38,0,0,1-.2.69Zm39.55,0a.37.37,0,0,1-.2-.69q.83-.52,1.63-1.09a.37.37,0,1,1,.43.61q-.82.58-1.67,1.11A.37.37,0,0,1,61.15,73.34Zm-42.8-2.25a.38.38,0,0,1-.23-.08q-.79-.62-1.54-1.28a.38.38,0,0,1,.49-.56q.74.64,1.51,1.25a.38.38,0,0,1-.23.67Zm46,0a.37.37,0,0,1-.23-.67q.77-.61,1.51-1.25a.38.38,0,1,1,.49.56q-.75.66-1.54,1.28A.37.37,0,0,1,64.39,71.05Zm-49-2.58a.37.37,0,0,1-.26-.11q-.72-.7-1.4-1.43a.38.38,0,1,1,.55-.51q.67.72,1.37,1.41a.38.38,0,0,1-.26.64Zm52,0a.37.37,0,0,1-.27-.11.38.38,0,0,1,0-.53c.47-.46.92-.93,1.37-1.41a.37.37,0,1,1,.55.51q-.68.74-1.4,1.44A.37.37,0,0,1,67.38,68.44ZM12.67,65.56a.38.38,0,0,1-.29-.13q-.64-.77-1.24-1.57a.38.38,0,0,1,.08-.53.38.38,0,0,1,.53.08q.59.79,1.21,1.54a.38.38,0,0,1-.29.62Zm57.4,0a.37.37,0,0,1-.24-.09.38.38,0,0,1,0-.53c.42-.51.82-1,1.21-1.55a.38.38,0,0,1,.6.45q-.6.8-1.24,1.58A.38.38,0,0,1,70.07,65.52ZM10.29,62.38a.37.37,0,0,1-.31-.17q-.55-.83-1.07-1.7a.38.38,0,1,1,.65-.38q.5.84,1,1.66a.38.38,0,0,1-.1.52A.37.37,0,0,1,10.29,62.38Zm62.14,0a.37.37,0,0,1-.21-.06.38.38,0,0,1-.11-.52q.54-.82,1-1.67a.38.38,0,1,1,.65.38q-.51.86-1.07,1.7A.37.37,0,0,1,72.44,62.34ZM8.27,59a.38.38,0,0,1-.33-.2q-.46-.89-.88-1.8a.37.37,0,1,1,.68-.31q.41.89.86,1.76a.38.38,0,0,1-.33.55Zm66.18-.05a.37.37,0,0,1-.17,0,.38.38,0,0,1-.16-.51q.45-.87.86-1.77a.38.38,0,0,1,.68.31q-.42.92-.88,1.8A.38.38,0,0,1,74.46,58.92ZM6.63,55.37a.38.38,0,0,1-.35-.24q-.37-.93-.68-1.88A.37.37,0,1,1,6.31,53q.31.93.67,1.85a.37.37,0,0,1-.21.49ZM76.1,55.3l-.14,0a.38.38,0,0,1-.21-.49q.36-.91.67-1.85a.38.38,0,0,1,.71.23q-.32,1-.68,1.89A.37.37,0,0,1,76.1,55.3ZM5.38,51.6A.37.37,0,0,1,5,51.33q-.26-1-.48-1.95a.37.37,0,0,1,.73-.16q.21,1,.47,1.91a.37.37,0,0,1-.26.46Zm72-.08h-.1a.37.37,0,0,1-.26-.46q.26-.94.46-1.91a.37.37,0,1,1,.73.16q-.21,1-.47,1.95A.37.37,0,0,1,77.35,51.53ZM4.53,47.73a.38.38,0,0,1-.37-.31q-.16-1-.27-2A.38.38,0,0,1,4.23,45a.37.37,0,0,1,.41.33q.1,1,.26,1.95a.37.37,0,0,1-.31.43Zm73.65-.08h-.06a.37.37,0,0,1-.31-.43q.16-1,.26-1.95a.37.37,0,0,1,.41-.33.37.37,0,0,1,.33.41q-.11,1-.26,2A.37.37,0,0,1,78.18,47.65ZM4.11,43.78a.37.37,0,0,1-.37-.35q-.06-1-.06-2A.38.38,0,0,1,4.05,41h0a.38.38,0,0,1,.38.38c0,.66,0,1.31.06,2a.37.37,0,0,1-.35.39ZM78.6,43.7h0a.37.37,0,0,1-.35-.39c0-.65.05-1.3.05-2v-.16a.38.38,0,0,1,.75,0v.15c0,.68,0,1.35-.05,2A.38.38,0,0,1,78.6,43.7ZM4.1,39.81h0a.37.37,0,0,1-.36-.39c0-.67.08-1.34.15-2a.37.37,0,0,1,.41-.33.37.37,0,0,1,.33.41c-.07.65-.12,1.3-.15,2A.38.38,0,0,1,4.1,39.81Zm74.49-.24a.37.37,0,0,1-.37-.35q-.06-1-.16-2a.38.38,0,0,1,.33-.41.37.37,0,0,1,.41.33q.11,1,.17,2a.37.37,0,0,1-.35.39ZM4.51,35.87H4.45a.38.38,0,0,1-.31-.43c.1-.66.23-1.32.37-2a.37.37,0,1,1,.73.16c-.14.64-.26,1.28-.36,1.93A.38.38,0,0,1,4.51,35.87Zm73.65-.23a.38.38,0,0,1-.37-.31c-.11-.65-.23-1.29-.37-1.93a.37.37,0,1,1,.73-.16c.14.65.27,1.31.38,2a.38.38,0,0,1-.31.43ZM5.34,32h-.1A.37.37,0,0,1,5,31.51q.26-1,.57-1.92a.38.38,0,1,1,.71.23q-.3.93-.56,1.88A.38.38,0,0,1,5.34,32Zm72-.23a.38.38,0,0,1-.36-.28q-.26-.95-.57-1.88a.37.37,0,0,1,.71-.24c.21.63.41,1.27.58,1.92a.38.38,0,0,1-.26.46ZM6.57,28.21l-.14,0a.37.37,0,0,1-.21-.48q.36-.94.78-1.85a.37.37,0,0,1,.68.31q-.4.9-.76,1.82A.37.37,0,0,1,6.57,28.21ZM76,28a.37.37,0,0,1-.35-.24q-.36-.91-.77-1.8a.38.38,0,0,1,.68-.31q.42.91.79,1.84a.37.37,0,0,1-.21.49A.34.34,0,0,1,76,28ZM8.21,24.59a.36.36,0,0,1-.17,0,.37.37,0,0,1-.16-.5q.46-.89,1-1.76a.37.37,0,0,1,.65.38q-.5.85-1,1.72A.37.37,0,0,1,8.21,24.59Zm66.18-.2a.37.37,0,0,1-.33-.2q-.46-.87-1-1.71a.38.38,0,1,1,.64-.38q.51.86,1,1.75a.38.38,0,0,1-.33.55ZM10.22,21.16A.38.38,0,0,1,10,21.1a.37.37,0,0,1-.11-.52q.55-.84,1.15-1.64a.38.38,0,0,1,.6.45q-.58.79-1.13,1.61A.37.37,0,0,1,10.22,21.16ZM72.36,21a.37.37,0,0,1-.31-.17q-.54-.82-1.13-1.6a.37.37,0,1,1,.6-.45q.6.8,1.16,1.63a.37.37,0,0,1-.1.52A.37.37,0,0,1,72.36,21ZM12.59,18a.38.38,0,0,1-.24-.09.38.38,0,0,1,0-.53q.64-.77,1.32-1.51a.37.37,0,1,1,.55.51q-.67.72-1.29,1.48A.38.38,0,0,1,12.59,18ZM70,17.82a.38.38,0,0,1-.29-.13q-.63-.76-1.3-1.47a.37.37,0,1,1,.55-.51q.68.73,1.33,1.5a.38.38,0,0,1-.29.62ZM15.27,15.05a.38.38,0,0,1-.26-.64q.72-.7,1.47-1.36a.38.38,0,0,1,.5.56c-.49.43-1,.88-1.44,1.34A.38.38,0,0,1,15.27,15.05Zm52-.14A.38.38,0,0,1,67,14.8c-.47-.45-1-.9-1.45-1.33a.37.37,0,1,1,.49-.56c.5.44,1,.89,1.48,1.35a.38.38,0,0,1,0,.53A.37.37,0,0,1,67.28,14.91Zm-49-2.48a.37.37,0,0,1-.23-.67q.79-.62,1.6-1.2a.38.38,0,0,1,.43.61q-.8.57-1.57,1.18A.37.37,0,0,1,18.25,12.43Zm46-.13a.37.37,0,0,1-.23-.08q-.77-.61-1.58-1.17a.38.38,0,1,1,.43-.62q.82.57,1.61,1.19a.37.37,0,0,1-.23.67Zm-42.8-2.16a.37.37,0,0,1-.2-.69q.85-.53,1.72-1a.38.38,0,0,1,.37.65q-.86.48-1.69,1A.38.38,0,0,1,21.49,10.14ZM61,10a.37.37,0,0,1-.2-.06q-.83-.52-1.7-1a.38.38,0,0,1,.36-.66q.88.49,1.73,1A.38.38,0,0,1,61,10ZM24.95,8.21a.38.38,0,0,1-.16-.71c.6-.29,1.2-.57,1.82-.83a.37.37,0,0,1,.29.69q-.9.39-1.78.82A.36.36,0,0,1,24.95,8.21Zm32.6-.1a.38.38,0,0,1-.16,0q-.88-.43-1.79-.81a.37.37,0,1,1,.29-.69q.93.39,1.83.82a.38.38,0,0,1-.16.71Zm-29-1.46a.37.37,0,0,1-.13-.73q.94-.34,1.9-.63a.37.37,0,1,1,.22.72q-.94.29-1.86.62Zm25.29-.08-.13,0q-.92-.33-1.87-.61a.37.37,0,0,1,.21-.72q1,.29,1.91.62a.38.38,0,0,1-.13.73ZM32.39,5.5a.38.38,0,0,1-.09-.74q1-.24,2-.43a.37.37,0,0,1,.14.74q-1,.19-1.92.42Zm17.7-.06H50Q49,5.21,48.07,5a.37.37,0,0,1-.3-.44.38.38,0,0,1,.44-.3q1,.18,2,.41a.38.38,0,0,1-.09.74Zm-13.8-.69A.38.38,0,0,1,36.23,4q1-.13,2-.21a.38.38,0,0,1,.4.34.37.37,0,0,1-.34.4q-1,.08-2,.21Zm9.9,0h0q-1-.13-2-.2a.37.37,0,0,1-.35-.4.36.36,0,0,1,.4-.34q1,.08,2,.2a.37.37,0,0,1,0,.75Zm-5.94-.29a.38.38,0,0,1,0-.75c.67,0,1.34,0,2,0a.38.38,0,0,1,.37.38.35.35,0,0,1-.38.37c-.65,0-1.31,0-2,0Z"/><path class="cls-1" d="M41.4,82.7h-1a.12.12,0,0,1-.12-.13.12.12,0,0,1,.13-.12h2a.13.13,0,0,1,.13.12.12.12,0,0,1-.12.13Zm-3-.1h0c-.66,0-1.33-.11-2-.19a.13.13,0,0,1-.11-.14.13.13,0,0,1,.14-.11c.65.08,1.32.14,2,.19a.12.12,0,0,1,.12.13A.13.13,0,0,1,38.41,82.59Zm6,0a.12.12,0,0,1,0-.25c.66,0,1.32-.11,2-.19a.13.13,0,0,1,.14.11.12.12,0,0,1-.11.14c-.66.08-1.33.14-2,.19Zm-9.92-.46h0c-.66-.11-1.31-.24-2-.38a.12.12,0,1,1,.05-.24c.64.14,1.3.27,1.95.38a.12.12,0,0,1,0,.25Zm13.88,0a.12.12,0,0,1,0-.25c.65-.11,1.31-.24,1.95-.38a.12.12,0,0,1,.15.1.13.13,0,0,1-.09.15c-.64.14-1.3.27-2,.38Zm-17.76-.84h0c-.64-.17-1.28-.36-1.92-.57a.12.12,0,0,1-.08-.16.13.13,0,0,1,.16-.08c.63.2,1.27.39,1.9.56a.13.13,0,0,1,0,.25Zm21.65,0a.12.12,0,0,1,0-.24c.63-.17,1.27-.36,1.9-.57a.12.12,0,0,1,.16.08.12.12,0,0,1-.08.16c-.64.21-1.28.4-1.91.57ZM26.78,80h0c-.62-.23-1.24-.48-1.86-.75a.13.13,0,0,1,.1-.23c.61.27,1.23.52,1.84.75a.12.12,0,0,1,0,.24ZM56,80a.12.12,0,0,1,0-.24c.61-.23,1.23-.49,1.83-.75a.13.13,0,0,1,.16.06.13.13,0,0,1-.06.17c-.6.26-1.23.52-1.84.75ZM23.12,78.45h-.06c-.59-.29-1.19-.6-1.77-.93a.12.12,0,0,1,.12-.22c.58.32,1.17.63,1.76.92a.12.12,0,0,1,.06.17A.13.13,0,0,1,23.12,78.45Zm36.53,0a.13.13,0,0,1-.06-.24c.59-.29,1.18-.6,1.75-.92a.13.13,0,0,1,.12.22c-.58.32-1.17.64-1.76.93Zm-40-1.91-.07,0c-.56-.35-1.12-.72-1.67-1.1a.12.12,0,0,1,0-.17.13.13,0,0,1,.17,0c.55.38,1.11.74,1.66,1.09a.13.13,0,0,1,0,.17A.12.12,0,0,1,19.63,76.52Zm43.49,0a.13.13,0,0,1-.11-.06.12.12,0,0,1,0-.17c.56-.35,1.12-.71,1.66-1.09a.13.13,0,0,1,.17,0,.13.13,0,0,1,0,.18c-.55.38-1.11.74-1.67,1.09ZM16.35,74.25l-.08,0c-.53-.4-1.05-.82-1.56-1.25a.13.13,0,0,1,0-.18.12.12,0,0,1,.18,0c.5.42,1,.84,1.55,1.24a.13.13,0,0,1-.08.22Zm50,0a.12.12,0,0,1-.08-.22c.53-.4,1-.82,1.55-1.24a.13.13,0,1,1,.16.19c-.5.42-1,.84-1.56,1.25A.12.12,0,0,1,66.39,74.22ZM13.31,71.69a.13.13,0,0,1-.08,0c-.48-.45-1-.92-1.43-1.39a.13.13,0,0,1,0-.18.13.13,0,0,1,.18,0c.46.47.94.94,1.42,1.39a.13.13,0,0,1-.09.22Zm56.12,0a.13.13,0,0,1-.09,0,.13.13,0,0,1,0-.18c.48-.44,1-.91,1.42-1.39a.13.13,0,0,1,.18.18c-.47.48-1,.95-1.43,1.39A.13.13,0,0,1,69.43,71.65ZM10.52,68.84a.13.13,0,0,1-.09,0c-.43-.49-.87-1-1.29-1.52a.13.13,0,0,1,.2-.16c.42.52.85,1,1.28,1.52a.12.12,0,0,1,0,.18A.12.12,0,0,1,10.52,68.84Zm61.69,0a.13.13,0,0,1-.09-.21c.44-.49.87-1,1.28-1.52a.13.13,0,0,1,.2.16c-.42.52-.85,1-1.29,1.53A.13.13,0,0,1,72.21,68.81ZM8,65.74a.12.12,0,0,1-.1-.05c-.39-.54-.77-1.09-1.14-1.64a.12.12,0,0,1,0-.17.13.13,0,0,1,.17,0c.36.55.74,1.1,1.13,1.63a.13.13,0,0,1,0,.18Zm66.68,0-.07,0a.13.13,0,0,1,0-.18c.39-.53.77-1.08,1.13-1.63a.13.13,0,0,1,.21.14c-.36.55-.75,1.11-1.14,1.64A.13.13,0,0,1,74.71,65.7ZM5.84,62.42a.12.12,0,0,1-.11-.06c-.33-.56-.66-1.15-1-1.74a.13.13,0,0,1,.05-.17A.12.12,0,0,1,5,60.5c.31.59.64,1.17,1,1.73a.12.12,0,0,1,0,.17Zm71.05-.05-.06,0a.13.13,0,0,1,0-.17c.33-.56.66-1.14,1-1.73a.12.12,0,1,1,.22.12c-.31.6-.64,1.19-1,1.75A.12.12,0,0,1,76.89,62.37ZM4,58.9a.13.13,0,0,1-.11-.07c-.28-.59-.54-1.2-.8-1.82a.12.12,0,1,1,.23-.1c.25.62.52,1.23.8,1.81a.12.12,0,0,1-.06.17Zm74.77-.06H78.7a.12.12,0,0,1-.06-.17c.28-.59.54-1.2.8-1.82a.13.13,0,0,1,.23.09c-.25.63-.52,1.24-.8,1.83A.12.12,0,0,1,78.75,58.84ZM2.48,55.22a.13.13,0,0,1-.12-.08c-.22-.62-.43-1.26-.62-1.9A.13.13,0,0,1,2,53.17c.19.64.4,1.28.62,1.89a.13.13,0,0,1-.08.16Zm77.78-.08h0a.13.13,0,0,1-.08-.16c.22-.62.42-1.25.61-1.89a.12.12,0,0,1,.16-.08.12.12,0,0,1,.08.15c-.19.64-.4,1.28-.62,1.9A.13.13,0,0,1,80.25,55.15ZM1.33,51.41a.12.12,0,0,1-.12-.09c-.16-.63-.3-1.29-.43-1.95a.12.12,0,0,1,.1-.15.12.12,0,0,1,.15.1c.13.66.27,1.31.43,1.94a.12.12,0,0,1-.09.15Zm80.06-.08h0a.12.12,0,0,1-.09-.15c.16-.64.3-1.29.43-1.94a.12.12,0,0,1,.15-.1.13.13,0,0,1,.1.15c-.13.65-.27,1.31-.43,2A.13.13,0,0,1,81.39,51.33ZM.56,47.5a.13.13,0,0,1-.12-.11c-.1-.66-.18-1.33-.24-2a.12.12,0,0,1,.11-.14.12.12,0,0,1,.14.11c.06.65.15,1.31.24,2a.13.13,0,0,1-.11.14Zm81.59-.08h0a.12.12,0,0,1-.11-.14c.09-.65.17-1.31.24-2a.12.12,0,0,1,.14-.11.13.13,0,0,1,.11.14c-.06.66-.14,1.33-.24,2A.13.13,0,0,1,82.15,47.42Zm-82-3.88a.13.13,0,0,1-.12-.12c0-.67,0-1.34-.05-2a.13.13,0,0,1,.13-.12h0a.13.13,0,0,1,.13.13c0,.65,0,1.32.05,2a.13.13,0,0,1-.12.13Zm82.35-.08h0a.13.13,0,0,1-.12-.13c0-.65,0-1.32,0-2v-.17a.13.13,0,0,1,.25,0v.16c0,.68,0,1.35,0,2A.13.13,0,0,1,82.53,43.46ZM.17,39.56h0A.13.13,0,0,1,0,39.43c0-.67.08-1.34.14-2a.13.13,0,0,1,.14-.11.13.13,0,0,1,.11.14c-.06.65-.11,1.31-.14,2A.13.13,0,0,1,.17,39.56Zm82.36-.25a.13.13,0,0,1-.12-.12c0-.67-.09-1.33-.15-2a.13.13,0,0,1,.11-.14.12.12,0,0,1,.14.11c.07.65.12,1.32.15,2a.13.13,0,0,1-.12.13ZM.54,35.6h0a.13.13,0,0,1-.11-.14c.09-.66.21-1.33.33-2a.12.12,0,0,1,.15-.1.13.13,0,0,1,.1.15c-.12.64-.23,1.3-.33,2A.13.13,0,0,1,.54,35.6Zm81.59-.25a.12.12,0,0,1-.12-.11c-.1-.66-.21-1.32-.34-2a.13.13,0,0,1,.1-.15.13.13,0,0,1,.15.1c.13.64.24,1.3.34,2a.13.13,0,0,1-.11.14ZM1.29,31.69h0a.12.12,0,0,1-.09-.15c.16-.65.33-1.3.52-1.93a.13.13,0,0,1,.24.07c-.19.63-.36,1.27-.52,1.92A.13.13,0,0,1,1.29,31.69Zm80.06-.24a.12.12,0,0,1-.12-.09c-.16-.64-.34-1.28-.53-1.91a.13.13,0,1,1,.24-.07c.19.64.37,1.29.53,1.93a.12.12,0,0,1-.09.15ZM2.42,27.87h0a.13.13,0,0,1-.08-.16c.22-.64.46-1.27.71-1.87a.13.13,0,0,1,.16-.07.12.12,0,0,1,.07.16c-.24.6-.48,1.22-.7,1.86A.12.12,0,0,1,2.42,27.87Zm77.78-.23a.12.12,0,0,1-.12-.08c-.22-.62-.46-1.24-.71-1.85a.12.12,0,1,1,.23-.09c.25.62.5,1.24.72,1.86a.13.13,0,0,1-.08.16ZM3.92,24.17H3.87A.12.12,0,0,1,3.8,24c.28-.61.58-1.21.88-1.79a.13.13,0,0,1,.17-.05.12.12,0,0,1,.05.17c-.3.58-.6,1.18-.88,1.78A.12.12,0,0,1,3.92,24.17ZM78.68,24a.13.13,0,0,1-.11-.07c-.28-.6-.58-1.2-.89-1.77a.13.13,0,0,1,.05-.17.12.12,0,0,1,.17.05c.31.58.61,1.18.89,1.78a.12.12,0,0,1-.06.17ZM5.77,20.64l-.06,0a.13.13,0,0,1,0-.17c.33-.56.68-1.13,1.05-1.7a.12.12,0,1,1,.21.14c-.37.56-.72,1.13-1,1.69A.12.12,0,0,1,5.77,20.64Zm71.06-.19a.13.13,0,0,1-.11-.06c-.33-.56-.69-1.13-1.05-1.68a.12.12,0,1,1,.21-.14c.37.55.72,1.12,1.06,1.69a.13.13,0,0,1,0,.17ZM7.95,17.3l-.07,0a.13.13,0,0,1,0-.18c.39-.54.8-1.08,1.21-1.59a.12.12,0,0,1,.18,0,.13.13,0,0,1,0,.18c-.41.51-.81,1-1.2,1.58A.12.12,0,0,1,7.95,17.3Zm66.68-.18a.12.12,0,0,1-.1-.05c-.39-.54-.8-1.06-1.21-1.57a.13.13,0,0,1,.2-.16c.41.51.82,1,1.22,1.58a.12.12,0,0,1,0,.17ZM10.44,14.19a.13.13,0,0,1-.08,0,.13.13,0,0,1,0-.18c.44-.5.9-1,1.36-1.46a.13.13,0,0,1,.18.17c-.46.47-.91,1-1.35,1.46A.13.13,0,0,1,10.44,14.19ZM72.13,14A.12.12,0,0,1,72,14c-.44-.49-.9-1-1.36-1.45a.12.12,0,1,1,.18-.18c.46.47.92,1,1.37,1.46a.12.12,0,0,1-.09.21Zm-58.91-2.7a.13.13,0,0,1-.08-.22c.48-.45,1-.9,1.49-1.33a.13.13,0,0,1,.18,0,.13.13,0,0,1,0,.18c-.5.43-1,.87-1.48,1.32A.13.13,0,0,1,13.21,11.34Zm56.12-.14a.13.13,0,0,1-.08,0c-.49-.45-1-.89-1.49-1.31a.13.13,0,0,1,0-.18.12.12,0,0,1,.18,0c.5.42,1,.87,1.5,1.32a.13.13,0,0,1-.09.22ZM16.25,8.76a.13.13,0,0,1-.1,0,.12.12,0,0,1,0-.18c.53-.41,1.08-.8,1.61-1.18a.12.12,0,0,1,.14.21c-.53.37-1.07.76-1.6,1.17A.12.12,0,0,1,16.25,8.76Zm50-.13-.08,0c-.53-.4-1.07-.79-1.61-1.16a.13.13,0,0,1,.14-.21c.54.37,1.09.77,1.62,1.17a.13.13,0,0,1-.08.22ZM19.51,6.49a.13.13,0,0,1-.07-.23c.56-.35,1.14-.69,1.72-1a.12.12,0,0,1,.17,0,.13.13,0,0,1,0,.17c-.57.32-1.15.66-1.71,1ZM63,6.38l-.07,0c-.57-.35-1.15-.69-1.72-1a.13.13,0,1,1,.12-.22c.57.31,1.15.65,1.73,1a.12.12,0,0,1,0,.17A.12.12,0,0,1,63,6.38ZM23,4.55a.13.13,0,0,1-.11-.07.13.13,0,0,1,.06-.17c.6-.3,1.2-.58,1.81-.84a.12.12,0,0,1,.16.06.13.13,0,0,1-.06.17c-.6.26-1.2.55-1.79.84Zm36.53-.11h-.05c-.6-.29-1.2-.57-1.81-.83a.12.12,0,0,1-.06-.16.12.12,0,0,1,.16-.06c.6.26,1.22.54,1.82.84a.12.12,0,0,1-.05.24ZM26.62,3a.13.13,0,0,1-.12-.08.13.13,0,0,1,.07-.16c.62-.24,1.25-.46,1.88-.67a.12.12,0,1,1,.08.24c-.63.21-1.26.43-1.87.66Zm29.23-.09h0c-.61-.23-1.25-.45-1.88-.65A.13.13,0,0,1,54,2c.64.21,1.27.43,1.89.66a.12.12,0,0,1,0,.24ZM30.4,1.71a.13.13,0,0,1,0-.25c.64-.17,1.29-.34,1.94-.48a.12.12,0,0,1,.15.09.13.13,0,0,1-.09.15c-.65.14-1.3.3-1.93.48Zm21.65-.07h0c-.64-.17-1.29-.33-1.93-.47A.13.13,0,0,1,50,1a.12.12,0,0,1,.15-.1c.65.14,1.3.3,1.94.47a.13.13,0,0,1,0,.25ZM34.29.85a.13.13,0,0,1,0-.25c.65-.11,1.32-.21,2-.29a.13.13,0,0,1,.14.11.12.12,0,0,1-.11.14c-.65.08-1.31.18-2,.29ZM48.16.8h0c-.65-.11-1.32-.2-2-.28a.12.12,0,0,1-.11-.14.13.13,0,0,1,.14-.11c.65.08,1.32.17,2,.28a.13.13,0,0,1,0,.25ZM38.24.36a.12.12,0,0,1,0-.25c.66-.05,1.33-.08,2-.1h0a.13.13,0,0,1,0,.25c-.66,0-1.33.05-2,.1Zm6,0h0c-.66,0-1.33-.07-2-.09a.13.13,0,0,1,0-.25h0c.66,0,1.33,0,2,.09a.13.13,0,0,1,0,.25Z"/><path class="cls-2" d="M18,58.75,16.4,49.58c0-.16-.05-.34-.08-.53l0,0-2.84-5.73c-.52-1.06-1.06-2.12-1.55-3.2-.19-.41-.53-.4-.87-.46l-2.67-.39c0,.67-.07,1.34-.07,2a32.9,32.9,0,0,0,7.21,20.59c.76-.74,1.52-1.49,2.3-2.22C18.14,59.41,18,59.09,18,58.75Z"/><path class="cls-2" d="M51.24,68.65c-3-.41-6-.86-9-1.3a2.2,2.2,0,0,1-1-.23l.06-.06L35,68c-1.2.18-2.4.37-3.6.51a1.16,1.16,0,0,0-1,.74C30,70.16,29.49,71.09,29,72a33,33,0,0,0,24.52,0c-.44-.88-.88-1.77-1.29-2.66A1.16,1.16,0,0,0,51.24,68.65Z"/><path class="cls-2" d="M17.22,24.61c2.94-1.57,5.9-3.12,9-4.73v0a3.62,3.62,0,0,1,.72-.74C29,17.11,31.14,15,33.29,13a1.19,1.19,0,0,0,.33-1.23c-.14-.81-.28-1.63-.42-2.44A33.09,33.09,0,0,0,13.58,23.43L16,24.67A1.18,1.18,0,0,0,17.22,24.61Z"/><path class="cls-2" d="M50.55,13.73c2.15,2.08,4.11,4.36,6.07,6.46l-6.33.93c-1.17.17-2.35.35-3.52.49-.45.05-.55.38-.7.69L42,30.64l-.42.81L38.45,25.2c-.49-1-1-2-1.46-3a1,1,0,0,0-.91-.63c-3.23-.45-6.45-.94-9.68-1.42l-.25-.05-1.06,6.23c-.2,1.2-.39,2.4-.63,3.58a1.16,1.16,0,0,0,.39,1.2c2.2,2.11,4.37,4.24,6.55,6.37a2.13,2.13,0,0,1,.64.75c-3,.44-5.93.94-8.89,1.27a2.84,2.84,0,0,0-2.58,1.8c-1.26,2.58-2.74,5-4.1,7.46l6,3.13c1,.51,2,1,2.93,1.55a1,1,0,0,0,1.11,0c2.88-1.54,5.77-3,8.66-4.54l.3-.13A2.5,2.5,0,0,1,35.32,50c-.49,2.93-1,5.86-1.52,8.78A1.19,1.19,0,0,0,34.25,60c2.37,2.28,4.72,4.58,7.17,7,2.09-2,4.12-4.11,6.26-6.06a2.83,2.83,0,0,0,1-3c-.52-2.95-.77-5.94-1.11-8.8l5.67,3c1,.55,2.1,1.1,3.14,1.67.39.22.67,0,1-.14l8.23-4.32.5-.25a4,4,0,0,1-.45-.89c-1.32-2.66-2.64-5.32-3.94-8a1.19,1.19,0,0,0-1.06-.7c-3.3-.46-6.6-.95-10-1.44l4.7-4.59c.87-.85,1.72-1.71,2.62-2.53a1.17,1.17,0,0,0,.39-1.21c-.54-3-1-6-1.56-9a2.17,2.17,0,0,1-.08-1c2.67,1.4,5.35,2.73,7.94,4.2a2.83,2.83,0,0,0,3.15.06c.42-.22.85-.43,1.27-.64A33.09,33.09,0,0,0,49.89,9.41c-.08.44-.16.87-.25,1.3A2.84,2.84,0,0,0,50.55,13.73Z"/><path class="cls-2" d="M71.65,39.47a1,1,0,0,0-.88.68c-1.42,2.93-2.89,5.85-4.34,8.77l0,.07c-.39,2.32-.77,4.54-1.15,6.75-.18,1.09-.35,2.18-.57,3.27A1,1,0,0,0,65,60l2.06,2a32.91,32.91,0,0,0,7.3-20.71c0-.76,0-1.51-.08-2.25C73.43,39.23,72.54,39.36,71.65,39.47Z"/><path class="cls-3" d="M33.29,13C31.14,15,29,17.11,26.9,19.19a3.62,3.62,0,0,0-.72.74l0,.2.25.05c3.22.48,6.45,1,9.68,1.42a1,1,0,0,1,.91.63c.46,1,1,2,1.46,3l3.09,6.25.42-.81,4.12-8.34c.15-.31.25-.64.7-.69,1.18-.14,2.35-.32,3.52-.49l6.33-.93c-2-2.11-3.92-4.38-6.07-6.46a2.84,2.84,0,0,1-.91-3c.09-.43.17-.87.25-1.3a33.14,33.14,0,0,0-16.7-.1c.14.81.28,1.63.42,2.44A1.19,1.19,0,0,1,33.29,13Z"/><path class="cls-4" d="M64.62,23.88c-2.59-1.47-5.27-2.8-7.94-4.2a2.17,2.17,0,0,0,.08,1c.51,3,1,6,1.56,9a1.17,1.17,0,0,1-.39,1.21c-.89.82-1.75,1.68-2.62,2.53L50.62,38c3.43.5,6.73,1,10,1.44a1.19,1.19,0,0,1,1.06.7c1.29,2.68,2.61,5.34,3.94,8a4,4,0,0,0,.45.89l.32-.16,0,.12,0-.07c1.45-2.92,2.91-5.83,4.34-8.77a1,1,0,0,1,.88-.68c.89-.1,1.78-.24,2.67-.37A32.85,32.85,0,0,0,69,23.3c-.43.21-.85.42-1.27.64A2.83,2.83,0,0,1,64.62,23.88Z"/><path class="cls-5" d="M64.67,59c.22-1.08.38-2.18.57-3.27.38-2.22.76-4.43,1.15-6.75l-.12.22A1.18,1.18,0,0,1,66.1,49l-.5.25-8.23,4.32c-.3.16-.58.37-1,.14-1-.58-2.09-1.12-3.14-1.67l-5.67-3c.35,2.86.6,5.85,1.11,8.8a2.83,2.83,0,0,1-1,3c-2.14,1.95-4.17,4-6.26,6.06l.1.1-.24,0-.06.06a2.2,2.2,0,0,0,1,.23c3,.44,6,.89,9,1.3a1.16,1.16,0,0,1,1,.74c.41.9.85,1.78,1.29,2.66a33.14,33.14,0,0,0,13.54-10L65,60A1,1,0,0,1,64.67,59Z"/><path class="cls-5" d="M66.1,49a1.18,1.18,0,0,0,.17.18l.12-.22,0-.12Z"/><path class="cls-6" d="M31.42,68.49c1.2-.14,2.4-.33,3.6-.51l6.26-.92.14-.13c-2.45-2.38-4.8-4.68-7.17-7a1.19,1.19,0,0,1-.45-1.19c.53-2.92,1-5.85,1.52-8.78a2.5,2.5,0,0,0,.12-1.23l-.3.13c-2.89,1.51-5.79,3-8.66,4.54a1,1,0,0,1-1.11,0c-1-.54-2-1-2.93-1.55l-6-3.13-.15.26c0,.19.05.37.08.53L18,58.75c.06.34.17.66-.16,1-.78.72-1.54,1.47-2.3,2.22A33.13,33.13,0,0,0,29,72c.46-.93.92-1.85,1.37-2.78A1.16,1.16,0,0,1,31.42,68.49Z"/><path class="cls-6" d="M41.52,67l-.1-.1-.14.13Z"/><path class="cls-7" d="M11.9,40.17c.5,1.07,1,2.13,1.55,3.2l2.84,5.73,0,0-.06-.37.2.11c1.35-2.42,2.84-4.88,4.1-7.46a2.84,2.84,0,0,1,2.58-1.8c3-.33,5.91-.83,8.89-1.27a2.13,2.13,0,0,0-.64-.75c-2.18-2.13-4.36-4.26-6.55-6.37a1.16,1.16,0,0,1-.39-1.2c.24-1.19.43-2.38.63-3.58l1.06-6.23h-.06a1,1,0,0,1,.1-.19v0c-3.07,1.62-6,3.16-9,4.73a1.18,1.18,0,0,1-1.27.06l-2.37-1.25a32.85,32.85,0,0,0-5.22,15.9l2.67.39C11.37,39.77,11.71,39.76,11.9,40.17Z"/><path class="cls-7" d="M26.08,20.11h.06l0-.2A1,1,0,0,0,26.08,20.11Z"/><path class="cls-7" d="M16.32,49.05l.15-.26-.2-.11Z"/><path class="cls-1" d="M41.35,74.89A33.55,33.55,0,1,1,74.9,41.34,33.59,33.59,0,0,1,41.35,74.89Zm0-66.1A32.55,32.55,0,1,0,73.9,41.34,32.59,32.59,0,0,0,41.35,8.79Z"/></g></g></svg>